<?xml version="1.0" encoding="utf-8"?>
<!-- Generator: Adobe Illustrator 26.0.1, SVG Export Plug-In . SVG Version: 6.00 Build 0)  -->
<svg version="1.1" id="Layer_1" xmlns="http://www.w3.org/2000/svg" xmlns:xlink="http://www.w3.org/1999/xlink" x="0px" y="0px"
	 viewBox="0 0 673.86 235.97" style="enable-background:new 0 0 673.86 235.97;" xml:space="preserve">
<style type="text/css">
	.st0{fill:#4190EA;}
	.st1{fill:#FFFFFF;}
	.st2{display:none;}
	.st3{display:inline;fill:#4190EA;}
</style>
<g>
	<g>
		<path class="st0" d="M347.74,91.16v11.86c0,1.23-1,2.23-2.23,2.23h-61.3c-1.64,0-2.97-1.33-2.97-2.97V12.46
			c0-1.64,1.33-2.97,2.97-2.97h60.08c1.23,0,2.23,1,2.23,2.23v11.86c0,1.23-1,2.23-2.23,2.23h-43.41c-0.57,0-1.03,0.46-1.03,1.03v21
			c0,0.57,0.46,1.03,1.03,1.03h37.07c1.23,0,2.23,1,2.23,2.23v10.65c0,1.23-1,2.23-2.23,2.23h-37.07c-0.57,0-1.03,0.46-1.03,1.03
			V87.9c0,0.57,0.46,1.03,1.03,1.03h44.62C346.74,88.93,347.74,89.93,347.74,91.16z"/>
		<path class="st0" d="M379.84,106.6c-3.42,0-6.61-0.56-9.58-1.69c-2.97-1.12-5.53-2.7-7.69-4.72s-3.84-4.38-5.06-7.08
			c-1.21-2.7-1.82-5.67-1.82-8.9c0-3.33,0.74-6.41,2.23-9.24c1.48-2.83,3.55-5.24,6.21-7.22c2.65-1.97,5.82-3.53,9.51-4.65
			c3.69-1.12,7.73-1.68,12.14-1.68c3.15,0,6.23,0.27,9.24,0.81c3.01,0.54,5.68,1.3,8.02,2.29v-4.05c0-4.67-1.33-8.27-3.98-10.79
			c-2.65-2.52-6.59-3.78-11.8-3.78c-3.78,0-7.46,0.67-11.06,2.02c-2.96,1.11-5.98,2.65-9.06,4.61c-1.06,0.68-2.48,0.32-3.03-0.82
			l-3.68-7.63c-0.46-0.96-0.14-2.15,0.77-2.71c8.63-5.34,17.91-8.02,27.81-8.02c10.16,0,18.05,2.5,23.67,7.49
			c5.62,4.99,8.43,12.21,8.43,21.65v21.98c0,1.89,0.36,3.24,1.08,4.05c0.51,0.57,1.29,0.97,2.33,1.18c0.85,0.17,1.44,0.97,1.44,1.83
			l0,12.13c0,0.92-0.67,1.73-1.58,1.89c-1.12,0.2-2.19,0.34-3.21,0.44c-1.48,0.13-2.76,0.2-3.84,0.2c-3.42-0.09-6.02-0.87-7.82-2.36
			c-1.8-1.48-2.92-3.48-3.37-6l-0.4-3.91c-3.15,4.14-6.97,7.28-11.46,9.44C389.77,105.52,384.96,106.6,379.84,106.6z M384.96,93.38
			c3.06,0,5.96-0.54,8.7-1.62c2.74-1.08,4.88-2.52,6.41-4.32c1.97-1.53,2.97-3.24,2.97-5.12l0-7.36c0-0.44-0.27-0.84-0.68-0.99
			c-1.97-0.69-4.08-1.26-6.33-1.71c-2.52-0.49-4.94-0.74-7.28-0.74c-4.68,0-8.5,1.06-11.47,3.17c-2.97,2.12-4.45,4.79-4.45,8.03
			c0,3.06,1.17,5.6,3.51,7.62C378.66,92.37,381.54,93.38,384.96,93.38z"/>
		<path class="st0" d="M466.29,106.6c-2.88,0-5.87-0.22-8.97-0.67c-3.1-0.45-6.14-1.08-9.1-1.89c-2.97-0.81-5.8-1.8-8.5-2.97
			c-1.69-0.73-3.26-1.52-4.71-2.36c-1.37-0.8-1.86-2.53-1.05-3.89l4.45-7.49c0.8-1.35,2.53-1.74,3.88-0.94
			c8.13,4.84,16,7.26,23.61,7.26c3.62,0,6.49-0.62,8.62-1.86c2.26-1.31,3.7-3.91,3.49-6.52c-0.18-2.24-1.45-3.92-3.82-5.05
			c-2.56-1.21-6.86-2.54-12.88-3.98c-4.58-1.08-8.5-2.2-11.73-3.37c-3.24-1.17-5.85-2.52-7.82-4.05c-1.98-1.53-3.42-3.28-4.31-5.26
			c-0.9-1.98-1.35-4.32-1.35-7.01c0-3.6,0.72-6.83,2.16-9.71c1.44-2.88,3.44-5.33,6-7.35s5.57-3.57,9.04-4.65
			c3.46-1.08,7.22-1.62,11.26-1.62c5.04,0,10.05,0.79,15.04,2.36c4.08,1.29,7.93,2.95,11.56,4.98c1.32,0.74,1.7,2.48,0.86,3.75
			l-4.47,6.75c-0.79,1.19-2.36,1.51-3.58,0.79c-3.16-1.84-6.16-3.22-9.02-4.13c-3.51-1.12-7.01-1.69-10.52-1.69
			c-3.24,0-5.96,0.63-8.16,1.89c-2.21,1.26-3.31,3.28-3.31,6.07c0,2.43,1.06,4.18,3.17,5.26c2.11,1.08,5.87,2.3,11.26,3.64
			c5.03,1.26,9.33,2.52,12.88,3.78c3.55,1.26,6.48,2.7,8.77,4.32c2.3,1.62,3.96,3.48,4.99,5.6c1.03,2.11,1.55,4.65,1.55,7.62
			c0,3.42-0.7,6.52-2.09,9.31c-1.4,2.79-3.35,5.15-5.87,7.08c-2.52,1.94-5.6,3.42-9.24,4.45C474.72,106.08,470.7,106.6,466.29,106.6
			z"/>
		<path class="st0" d="M539.8,106.6c-5.67,0-10.79-0.97-15.37-2.9c-4.59-1.93-8.5-4.56-11.74-7.89c-3.24-3.33-5.73-7.19-7.49-11.6
			c-1.75-4.4-2.63-9.04-2.63-13.89c0-5.04,0.85-9.78,2.56-14.23c1.7-4.45,4.18-8.36,7.42-11.74c3.24-3.37,7.17-6.04,11.8-8.02
			c4.63-1.98,9.82-2.97,15.58-2.97c5.75,0,10.9,0.99,15.44,2.97c4.54,1.98,8.41,4.63,11.6,7.96c3.19,3.33,5.62,7.19,7.28,11.6
			c1.66,4.41,2.5,8.99,2.5,13.76c0,1.17-0.02,2.3-0.07,3.37c-0.04,1.08-0.16,1.98-0.34,2.7l-53.45,0c-0.62,0-1.13,0.57-1.04,1.18
			c0.33,2.31,0.96,4.39,1.88,6.24c1.08,2.16,2.47,4,4.18,5.53c1.71,1.53,3.64,2.7,5.8,3.51c2.16,0.81,4.4,1.21,6.74,1.21
			c3.6,0,6.99-0.88,10.18-2.63c2.43-1.34,4.27-3,5.53-4.99c0.72-1.13,2.08-1.66,3.37-1.3l9.33,2.6c2,0.56,2.92,2.92,1.76,4.64
			c-2.56,3.81-6.03,7.04-10.42,9.7C554.52,104.87,547.71,106.6,539.8,106.6z M556.97,63.98c0.62,0,1.12-0.56,1.04-1.18
			c-0.63-4.76-2.54-8.61-5.74-11.57c-3.46-3.19-7.67-4.79-12.61-4.79c-2.43,0-4.7,0.43-6.81,1.28c-2.12,0.85-3.98,2.05-5.6,3.57
			c-1.62,1.53-2.95,3.37-3.98,5.53c-0.88,1.83-1.45,3.83-1.71,6c-0.07,0.61,0.43,1.15,1.04,1.15H556.97z"/>
		<path class="st0" d="M281.24,221.18v-89.12c0-1.49,1.21-2.7,2.7-2.7h39.65c4.4,0,8.47,0.92,12.21,2.76
			c3.73,1.85,6.95,4.27,9.64,7.28c2.7,3.01,4.81,6.43,6.34,10.25c1.53,3.82,2.29,7.67,2.29,11.53c0,6.2-1.55,11.85-4.65,16.93
			c-2.89,4.74-6.74,8.24-11.55,10.52c-0.56,0.26-0.77,0.93-0.45,1.46l18.14,28.99c1.64,2.63-0.25,6.04-3.35,6.04h-11.73
			c-1.36,0-2.62-0.7-3.35-1.85l-18.63-29.76c-0.19-0.3-0.52-0.48-0.87-0.48h-16.74c-0.57,0-1.03,0.46-1.03,1.03v27.12
			c0,2.18-1.77,3.95-3.95,3.95h-10.72C283.01,225.13,281.24,223.36,281.24,221.18z M300.88,176.71l22.19,0
			c1.15,0,2.33-0.11,3.41-0.52c2.13-0.82,3.91-2.15,5.34-4c1.08-1.39,1.93-3.04,2.56-4.92c0.63-1.89,0.94-3.91,0.94-6.07
			c0-2.25-0.36-4.32-1.08-6.21c-0.72-1.89-1.68-3.53-2.9-4.92c-1.21-1.39-2.61-2.47-4.18-3.24s-3.17-1.15-4.79-1.15h-21.49
			c-0.57,0-1.03,0.46-1.03,1.03v28.96C299.85,176.25,300.31,176.71,300.88,176.71z"/>
		<path class="st0" d="M403.17,226.48c-5.67,0-10.79-0.97-15.37-2.9c-4.59-1.93-8.5-4.56-11.74-7.89c-3.24-3.33-5.73-7.19-7.49-11.6
			c-1.75-4.4-2.63-9.04-2.63-13.89c0-5.04,0.85-9.78,2.56-14.23c1.7-4.45,4.18-8.36,7.42-11.74c3.24-3.37,7.17-6.04,11.8-8.02
			c4.63-1.98,9.82-2.97,15.58-2.97c5.75,0,10.9,0.99,15.44,2.97c4.54,1.98,8.41,4.63,11.6,7.96c3.19,3.33,5.62,7.19,7.28,11.6
			c1.66,4.41,2.5,8.99,2.5,13.76c0,1.17-0.02,2.3-0.07,3.37c-0.04,1.08-0.16,1.98-0.34,2.7l-53.45,0c-0.62,0-1.13,0.57-1.04,1.18
			c0.33,2.31,0.96,4.39,1.88,6.24c1.08,2.16,2.47,4,4.18,5.53c1.71,1.53,3.64,2.7,5.8,3.51c2.16,0.81,4.4,1.21,6.74,1.21
			c3.6,0,6.99-0.88,10.18-2.63c2.63-1.45,4.58-3.28,5.84-5.49c0.49-0.86,1.55-1.22,2.5-0.95l10.96,3.05c1.47,0.41,2.1,2.12,1.3,3.43
			c-2.6,4.21-6.27,7.75-11.02,10.63C417.89,224.75,411.08,226.48,403.17,226.48z M420.34,183.86c0.62,0,1.12-0.56,1.04-1.18
			c-0.63-4.76-2.54-8.61-5.74-11.57c-3.46-3.19-7.67-4.79-12.61-4.79c-2.43,0-4.7,0.43-6.81,1.28c-2.12,0.85-3.98,2.05-5.6,3.57
			c-1.62,1.53-2.95,3.37-3.98,5.53c-0.88,1.83-1.45,3.83-1.71,6c-0.07,0.61,0.43,1.15,1.04,1.15H420.34z"/>
		<path class="st0" d="M470.61,226.48c-3.42,0-6.61-0.56-9.58-1.69c-2.97-1.12-5.53-2.7-7.69-4.72c-2.16-2.02-3.84-4.38-5.06-7.08
			c-1.21-2.7-1.82-5.67-1.82-8.9c0-3.33,0.74-6.41,2.23-9.24c1.48-2.83,3.55-5.24,6.21-7.22c2.65-1.97,5.82-3.53,9.51-4.65
			c3.69-1.12,7.73-1.68,12.14-1.68c3.15,0,6.23,0.27,9.24,0.81c3.01,0.54,5.68,1.3,8.02,2.29v-4.05c0-4.67-1.33-8.27-3.98-10.79
			c-2.65-2.52-6.59-3.78-11.8-3.78c-3.78,0-7.46,0.67-11.06,2.02c-2.93,1.1-5.92,2.62-8.97,4.55c-1.11,0.71-2.59,0.33-3.17-0.86
			l-3.6-7.46c-0.48-1.01-0.14-2.25,0.81-2.83c8.61-5.31,17.86-7.97,27.74-7.97c10.16,0,18.05,2.5,23.67,7.49
			c5.62,4.99,8.43,12.21,8.43,21.65v21.98c0,1.89,0.36,3.24,1.08,4.05c0.36,0.4,0.85,0.72,1.48,0.94c1.46,0.52,2.29,2.09,2.29,3.65
			l0,8.71c0,2.04-1.54,3.78-3.57,4.03c-0.42,0.05-0.82,0.1-1.22,0.13c-1.48,0.13-2.76,0.2-3.84,0.2c-3.42-0.09-6.02-0.87-7.82-2.36
			c-1.8-1.48-2.92-3.48-3.37-6l-0.4-3.91c-3.15,4.14-6.97,7.28-11.46,9.44C480.54,225.4,475.73,226.48,470.61,226.48z
			 M475.73,213.26c3.06,0,5.96-0.54,8.7-1.62c2.74-1.08,4.88-2.52,6.41-4.32c1.97-1.53,2.97-3.24,2.97-5.12l0-7.36
			c0-0.44-0.27-0.84-0.68-0.99c-1.97-0.69-4.08-1.26-6.33-1.71c-2.52-0.49-4.94-0.74-7.28-0.74c-4.68,0-8.5,1.06-11.47,3.17
			c-2.97,2.12-4.45,4.79-4.45,8.03c0,3.06,1.17,5.6,3.51,7.62C469.43,212.25,472.31,213.26,475.73,213.26z"/>
		<path class="st0" d="M558.41,226.48c-4.86,0-9.33-0.94-13.42-2.83c-4.09-1.89-7.62-4.49-10.59-7.82
			c-2.97-3.33-5.28-7.22-6.95-11.67c-1.66-4.45-2.5-9.24-2.5-14.36c0-5.13,0.79-9.89,2.36-14.3c1.57-4.4,3.75-8.27,6.54-11.6
			c2.79-3.33,6.12-5.94,9.98-7.82s8.09-2.83,12.68-2.83c5.12,0,9.78,1.26,13.96,3.78c3.19,1.92,5.84,4.28,7.95,7.08
			c0.59,0.79,1.83,0.38,1.83-0.61v-34.37c0-1.35,1.1-2.45,2.45-2.45h13.17c1.35,0,2.45,1.1,2.45,2.45v75.24
			c0,1.89,0.36,3.24,1.08,4.05c0.32,0.36,0.75,0.65,1.29,0.87c1.46,0.59,2.48,1.93,2.48,3.5l0,9.17c0,1.87-1.41,3.46-3.27,3.71
			c-2.03,0.28-3.81,0.42-5.36,0.42c-3.33-0.09-5.91-0.85-7.75-2.29s-2.99-3.46-3.44-6.07l-0.4-4.85c-2.61,4.5-6.12,7.89-10.52,10.18
			C568.03,225.33,563.36,226.48,558.41,226.48z M563.13,211.1c1.71,0,3.46-0.29,5.26-0.88c1.8-0.58,3.46-1.42,4.99-2.5
			c1.53-1.08,2.92-2.34,4.18-3.78c1.21-1.38,2.13-2.89,2.76-4.52c0.05-0.13,0.08-0.28,0.08-0.42l0-16.42c0-0.14-0.03-0.29-0.08-0.42
			c-1.54-3.86-4-7.08-7.41-9.64c-3.46-2.61-7.08-3.91-10.86-3.91c-2.7,0-5.19,0.59-7.48,1.76c-2.29,1.17-4.25,2.76-5.87,4.79
			c-1.62,2.02-2.88,4.34-3.78,6.95s-1.35,5.31-1.35,8.09c0,2.97,0.49,5.71,1.48,8.23c0.99,2.52,2.36,4.72,4.11,6.61
			c1.75,1.89,3.82,3.37,6.21,4.45C557.76,210.56,560.35,211.1,563.13,211.1z"/>
		<path class="st0" d="M644.6,226.48c-2.88,0-5.87-0.22-8.97-0.67c-3.1-0.45-6.14-1.08-9.1-1.89c-2.97-0.81-5.8-1.8-8.5-2.97
			c-1.66-0.72-3.21-1.49-4.63-2.32c-1.42-0.82-1.92-2.61-1.08-4.01l4.35-7.33c0.82-1.39,2.61-1.79,4-0.97
			c8.1,4.81,15.95,7.21,23.53,7.21c3.62,0,6.49-0.62,8.62-1.86c2.26-1.31,3.7-3.91,3.49-6.52c-0.18-2.24-1.45-3.92-3.82-5.05
			c-2.56-1.21-6.86-2.54-12.88-3.98c-4.58-1.08-8.5-2.2-11.73-3.37c-3.24-1.17-5.85-2.52-7.82-4.05c-1.98-1.53-3.42-3.28-4.31-5.26
			c-0.9-1.98-1.35-4.32-1.35-7.01c0-3.6,0.72-6.83,2.16-9.71c1.44-2.88,3.44-5.33,6-7.35c2.56-2.02,5.57-3.57,9.04-4.65
			c3.46-1.08,7.22-1.62,11.26-1.62c5.04,0,10.05,0.79,15.04,2.36c4.01,1.26,7.8,2.89,11.37,4.88c1.43,0.8,1.83,2.67,0.93,4.04
			l-4.24,6.4c-0.85,1.28-2.54,1.63-3.86,0.86c-3.09-1.79-6.04-3.14-8.85-4.04c-3.51-1.12-7.01-1.69-10.52-1.69
			c-3.24,0-5.96,0.63-8.16,1.89c-2.21,1.26-3.3,3.28-3.3,6.07c0,2.43,1.06,4.18,3.17,5.26c2.11,1.08,5.87,2.3,11.26,3.64
			c5.03,1.26,9.33,2.52,12.88,3.78c3.55,1.26,6.48,2.7,8.77,4.32c2.3,1.62,3.96,3.48,4.99,5.6c1.03,2.11,1.55,4.65,1.55,7.62
			c0,3.42-0.7,6.52-2.09,9.31c-1.4,2.79-3.35,5.15-5.87,7.08c-2.52,1.94-5.6,3.42-9.24,4.45C653.03,225.96,649,226.48,644.6,226.48z
			"/>
	</g>
	<path class="st0" d="M203.04,0H32.93C14.74,0,0,14.75,0,32.93v170.11c0,18.18,14.74,32.93,32.93,32.93h170.11
		c18.18,0,32.93-14.75,32.93-32.93V32.93C235.97,14.75,221.22,0,203.04,0z M211.85,176.36c0,18.18-14.74,32.93-32.93,32.93H62.18
		c-18.18,0-32.92-14.75-32.92-32.93V59.61c0-18.18,14.74-32.93,32.92-32.93h116.75c18.19,0,32.93,14.75,32.93,32.93V176.36z"/>
	<path class="st0" d="M179.31,186.06H46.92v-35.53h132.4c5.38,0,9.74,4.36,9.74,9.74v16.06
		C189.05,181.7,184.69,186.06,179.31,186.06z"/>
	<path class="st0" d="M152.18,136.68H46.92v-35.53h105.27c5.38,0,9.74,4.36,9.74,9.74v16.06
		C161.92,132.33,157.56,136.68,152.18,136.68z"/>
	<path class="st0" d="M179.31,85.44H46.92V49.91h132.4c5.38,0,9.74,4.36,9.74,9.74v16.06C189.05,81.09,184.69,85.44,179.31,85.44z"
		/>
</g>
</svg>
